# File produced by Open Asset Import Library (http://www.assimp.sf.net)
# (assimp v3.1.202510665)

mtllib Unity%20HD%20Render%20Pipeline%20(Metallic%20Standard)%20Fence.mtl

# vertex positions
v 41.065441 40.247211 -190.239410
v 40.654747 40.247211 -190.476532
v 40.654747 24.580921 -190.476532
v 41.065441 24.580921 -190.239410
v 40.654747 40.247211 -190.950745
v 40.654747 24.580921 -190.950745
v 41.065441 40.247211 -191.187866
v 41.065441 24.580921 -191.187866
v 41.476131 40.247211 -190.950745
v 41.476131 24.580921 -190.950745
v 41.476131 40.247211 -190.476532
v 41.476131 24.580921 -190.476532
v 36.753185 40.247211 -190.239410
v 36.342495 40.247211 -190.476532
v 36.342495 24.580921 -190.476532
v 36.753185 24.580921 -190.239410
v 36.342495 40.247211 -190.950745
v 36.342495 24.580921 -190.950745
v 36.753185 40.247211 -191.187866
v 36.753185 24.580921 -191.187866
v 37.163879 40.247211 -190.950745
v 37.163879 24.580921 -190.950745
v 37.163879 40.247211 -190.476532
v 37.163879 24.580921 -190.476532
v 32.440929 40.247211 -190.239410
v 32.030239 40.247211 -190.476532
v 32.030239 24.580921 -190.476532
v 32.440929 24.580921 -190.239410
v 32.030239 40.247211 -190.950745
v 32.030239 24.580921 -190.950745
v 32.440929 40.247211 -191.187866
v 32.440929 24.580921 -191.187866
v 32.851620 40.247211 -190.950745
v 32.851620 24.580921 -190.950745
v 32.851620 40.247211 -190.476532
v 32.851620 24.580921 -190.476532
v 28.128677 40.247211 -190.239410
v 27.717983 40.247211 -190.476532
v 27.717983 24.580921 -190.476532
v 28.128677 24.580921 -190.239410
v 27.717983 40.247211 -190.950745
v 27.717983 24.580921 -190.950745
v 28.128677 40.247211 -191.187866
v 28.128677 24.580921 -191.187866
v 28.539368 40.247211 -190.950745
v 28.539368 24.580921 -190.950745
v 28.539368 40.247211 -190.476532
v 28.539368 24.580921 -190.476532
v 23.816422 40.247211 -190.239410
v 23.405731 40.247211 -190.476532
v 23.405731 24.580921 -190.476532
v 23.816422 24.580921 -190.239410
v 23.405731 40.247211 -190.950745
v 23.405731 24.580921 -190.950745
v 23.816422 40.247211 -191.187866
v 23.816422 24.580921 -191.187866
v 24.227114 40.247211 -190.950745
v 24.227114 24.580921 -190.950745
v 24.227114 40.247211 -190.476532
v 24.227114 24.580921 -190.476532
v 19.504169 40.247211 -190.239410
v 19.093475 40.247211 -190.476532
v 19.093475 24.580921 -190.476532
v 19.504169 24.580921 -190.239410
v 19.093475 40.247211 -190.950745
v 19.093475 24.580921 -190.950745
v 19.504169 40.247211 -191.187866
v 19.504169 24.580921 -191.187866
v 19.914858 40.247211 -190.950745
v 19.914858 24.580921 -190.950745
v 19.914858 40.247211 -190.476532
v 19.914858 24.580921 -190.476532
v 15.191914 40.247211 -190.239410
v 14.781221 40.247211 -190.476532
v 14.781221 24.580921 -190.476532
v 15.191914 24.580921 -190.239410
v 14.781221 40.247211 -190.950745
v 14.781221 24.580921 -190.950745
v 15.191914 40.247211 -191.187866
v 15.191914 24.580921 -191.187866
v 15.602604 40.247211 -190.950745
v 15.602604 24.580921 -190.950745
v 15.602604 40.247211 -190.476532
v 15.602604 24.580921 -190.476532
v 10.879657 40.247211 -190.239410
v 10.468966 40.247211 -190.476532
v 10.468966 24.580921 -190.476532
v 10.879657 24.580921 -190.239410
v 10.468966 40.247211 -190.950745
v 10.468966 24.580921 -190.950745
v 10.879657 40.247211 -191.187866
v 10.879657 24.580921 -191.187866
v 11.290348 40.247211 -190.950745
v 11.290348 24.580921 -190.950745
v 11.290348 40.247211 -190.476532
v 11.290348 24.580921 -190.476532
v 6.567404 40.247211 -190.239410
v 6.156713 40.247211 -190.476532
v 6.156713 24.580921 -190.476532
v 6.567404 24.580921 -190.239410
v 6.156713 40.247211 -190.950745
v 6.156713 24.580921 -190.950745
v 6.567404 40.247211 -191.187866
v 6.567404 24.580921 -191.187866
v 6.978095 40.247211 -190.950745
v 6.978095 24.580921 -190.950745
v 6.978095 40.247211 -190.476532
v 6.978095 24.580921 -190.476532
v 2.255151 40.247211 -190.239410
v 1.844460 40.247211 -190.476532
v 1.844460 24.580921 -190.476532
v 2.255151 24.580921 -190.239410
v 1.844460 40.247211 -190.950745
v 1.844460 24.580921 -190.950745
v 2.255151 40.247211 -191.187866
v 2.255151 24.580921 -191.187866
v 2.665842 40.247211 -190.950745
v 2.665842 24.580921 -190.950745
v 2.665842 40.247211 -190.476532
v 2.665842 24.580921 -190.476532
v -2.057102 40.247211 -190.239410
v -2.467793 40.247211 -190.476532
v -2.467793 24.580921 -190.476532
v -2.057102 24.580921 -190.239410
v -2.467793 40.247211 -190.950745
v -2.467793 24.580921 -190.950745
v -2.057102 40.247211 -191.187866
v -2.057102 24.580921 -191.187866
v -1.646412 40.247211 -190.950745
v -1.646412 24.580921 -190.950745
v -1.646412 40.247211 -190.476532
v -1.646412 24.580921 -190.476532
v -6.369355 40.247211 -190.239410
v -6.780046 40.247211 -190.476532
v -6.780046 24.580921 -190.476532
v -6.369355 24.580921 -190.239410
v -6.780046 40.247211 -190.950745
v -6.780046 24.580921 -190.950745
v -6.369355 40.247211 -191.187866
v -6.369355 24.580921 -191.187866
v -5.958664 40.247211 -190.950745
v -5.958664 24.580921 -190.950745
v -5.958664 40.247211 -190.476532
v -5.958664 24.580921 -190.476532
v -10.681608 40.247211 -190.239410
v -11.092299 40.247211 -190.476532
v -11.092299 24.580921 -190.476532
v -10.681608 24.580921 -190.239410
v -11.092299 40.247211 -190.950745
v -11.092299 24.580921 -190.950745
v -10.681608 40.247211 -191.187866
v -10.681608 24.580921 -191.187866
v -10.270918 40.247211 -190.950745
v -10.270918 24.580921 -190.950745
v -10.270918 40.247211 -190.476532
v -10.270918 24.580921 -190.476532
v -14.993861 40.247211 -190.239410
v -15.404552 40.247211 -190.476532
v -15.404552 24.580921 -190.476532
v -14.993861 24.580921 -190.239410
v -15.404552 40.247211 -190.950745
v -15.404552 24.580921 -190.950745
v -14.993861 40.247211 -191.187866
v -14.993861 24.580921 -191.187866
v -14.583170 40.247211 -190.950745
v -14.583170 24.580921 -190.950745
v -14.583170 40.247211 -190.476532
v -14.583170 24.580921 -190.476532
v -19.306114 40.247211 -190.239410
v -19.716805 40.247211 -190.476532
v -19.716805 24.580921 -190.476532
v -19.306114 24.580921 -190.239410
v -19.716805 40.247211 -190.950745
v -19.716805 24.580921 -190.950745
v -19.306114 40.247211 -191.187866
v -19.306114 24.580921 -191.187866
v -18.895424 40.247211 -190.950745
v -18.895424 24.580921 -190.950745
v -18.895424 40.247211 -190.476532
v -18.895424 24.580921 -190.476532
v -23.618370 40.247211 -190.239410
v -24.029058 40.247211 -190.476532
v -24.029058 24.580921 -190.476532
v -23.618370 24.580921 -190.239410
v -24.029058 40.247211 -190.950745
v -24.029058 24.580921 -190.950745
v -23.618370 40.247211 -191.187866
v -23.618370 24.580921 -191.187866
v -23.207676 40.247211 -190.950745
v -23.207676 24.580921 -190.950745
v -23.207676 40.247211 -190.476532
v -23.207676 24.580921 -190.476532
v -27.930620 40.247211 -190.239410
v -28.341311 40.247211 -190.476532
v -28.341311 24.580921 -190.476532
v -27.930620 24.580921 -190.239410
v -28.341311 40.247211 -190.950745
v -28.341311 24.580921 -190.950745
v -27.930620 40.247211 -191.187866
v -27.930620 24.580921 -191.187866
v -27.519932 40.247211 -190.950745
v -27.519932 24.580921 -190.950745
v -27.519932 40.247211 -190.476532
v -27.519932 24.580921 -190.476532
v -32.242874 40.247211 -190.239410
v -32.653564 40.247211 -190.476532
v -32.653564 24.580921 -190.476532
v -32.242874 24.580921 -190.239410
v -32.653564 40.247211 -190.950745
v -32.653564 24.580921 -190.950745
v -32.242874 40.247211 -191.187866
v -32.242874 24.580921 -191.187866
v -31.832182 40.247211 -190.950745
v -31.832182 24.580921 -190.950745
v -31.832182 40.247211 -190.476532
v -31.832182 24.580921 -190.476532
v -36.555126 40.247211 -190.239410
v -36.965816 40.247211 -190.476532
v -36.965816 24.580921 -190.476532
v -36.555126 24.580921 -190.239410
v -36.965816 40.247211 -190.950745
v -36.965816 24.580921 -190.950745
v -36.555126 40.247211 -191.187866
v -36.555126 24.580921 -191.187866
v -36.144436 40.247211 -190.950745
v -36.144436 24.580921 -190.950745
v -36.144436 40.247211 -190.476532
v -36.144436 24.580921 -190.476532
v -40.867378 40.247211 -190.239410
v -41.278069 40.247211 -190.476532
v -41.278069 24.580921 -190.476532
v -40.867378 24.580921 -190.239410
v -41.278069 40.247211 -190.950745
v -41.278069 24.580921 -190.950745
v -40.867378 40.247211 -191.187866
v -40.867378 24.580921 -191.187866
v -40.456688 40.247211 -190.950745
v -40.456688 24.580921 -190.950745
v -40.456688 40.247211 -190.476532
v -40.456688 24.580921 -190.476532
v -23.433538 40.331467 -190.044434
v -46.878460 40.331467 -190.044434
v -46.878460 39.701954 -190.044434
v -23.433538 39.701954 -190.044434
v 23.456303 40.331467 -191.526657
v 46.901222 40.331467 -191.526657
v 46.901222 39.701954 -191.526657
v 23.456303 39.701954 -191.526657
v -23.433538 40.331467 -191.526657
v -46.878460 40.331467 -191.526657
v 23.456303 39.701954 -190.044434
v 46.901222 39.701954 -190.044434
v -46.878460 39.701954 -191.526657
v -23.433538 39.701954 -191.526657
v 0.011382 39.701954 -191.526657
v 0.011382 39.701954 -190.044434
v 46.901222 40.331467 -190.044434
v 23.456303 40.331467 -190.044434
v 0.011382 40.331467 -191.526657
v 0.011382 40.331467 -190.044434
v -23.496019 24.968903 -190.044434
v -46.940937 24.968903 -190.044434
v -46.940937 24.339388 -190.044434
v -23.496019 24.339388 -190.044434
v 23.393826 24.968903 -191.526657
v 46.838745 24.968903 -191.526657
v 46.838745 24.339388 -191.526657
v 23.393826 24.339388 -191.526657
v -23.496019 24.968903 -191.526657
v -46.940937 24.968903 -191.526657
v 23.393826 24.339388 -190.044434
v 46.838745 24.339388 -190.044434
v -46.940937 24.339388 -191.526657
v -23.496019 24.339388 -191.526657
v -0.051096 24.339388 -191.526657
v -0.051096 24.339388 -190.044434
v 46.838745 24.968903 -190.044434
v 23.393826 24.968903 -190.044434
v -0.051096 24.968903 -191.526657
v -0.051096 24.968903 -190.044434

# UV coordinates
vt 0.713650 0.735970
vt 0.713650 0.750006
vt 0.250000 0.750008
vt 0.250000 0.735971
vt 0.713650 0.764041
vt 0.250000 0.764044
vt 0.713651 0.778075
vt 0.250001 0.778080
vt 0.713651 0.693866
vt 0.713651 0.707901
vt 0.250000 0.707898
vt 0.250000 0.693862
vt 0.713650 0.721936
vt 0.250000 0.721935
vt 0.562498 0.693862
vt 0.562502 0.000000
vt 0.581133 0.000000
vt 0.581132 0.693862
vt 0.856366 0.693862
vt 0.856369 0.000000
vt 0.875000 0.000000
vt 0.875000 0.693862
vt 0.518631 0.693862
vt 0.518635 0.000000
vt 0.793867 0.693862
vt 0.750000 0.693862
vt 0.750000 0.000000
vt 0.793868 0.000000
vt 0.625000 0.000001
vt 0.625000 0.693862
vt 0.206133 0.000000
vt 0.250000 0.000000
vt 0.250000 0.693862
vt 0.206132 0.693862
vt 0.956133 0.000000
vt 1.000000 0.000000
vt 1.000000 0.693862
vt 0.956132 0.693862
vt 0.812502 0.000000
vt 0.812498 0.693862
vt 0.937498 0.693862
vt 0.893631 0.693862
vt 0.893634 0.000000
vt 0.937502 0.000000
vt 0.187498 0.693862
vt 0.143631 0.693862
vt 0.143634 0.000000
vt 0.187502 0.000000
vt 0.500000 0.693862
vt 0.500000 0.000000
vt 0.125000 0.693861
vt 0.125000 0.000000
vt 0.875000 0.693861
vt 0.875000 0.000000
vt 0.687498 0.693862
vt 0.687502 0.000000
vt 0.706133 0.000000
vt 0.706132 0.693862
vt 0.356366 0.693862
vt 0.356369 0.000000
vt 0.375000 0.000000
vt 0.375000 0.693862
vt 0.643631 0.693862
vt 0.643634 0.000000
vt 0.293867 0.693862
vt 0.250000 0.693862
vt 0.250000 0.000000
vt 0.293868 0.000000
vt 0.750000 0.000001
vt 0.750000 0.693862
vt 0.081133 0.000000
vt 0.125000 0.000000
vt 0.125000 0.693862
vt 0.081132 0.693862
vt 0.456133 0.000000
vt 0.500000 0.000000
vt 0.500000 0.693862
vt 0.456132 0.693862
vt 0.312502 0.000000
vt 0.312498 0.693862
vt 0.437498 0.693862
vt 0.393631 0.693862
vt 0.393635 0.000000
vt 0.437502 0.000000
vt 0.062498 0.693862
vt 0.018631 0.693862
vt 0.018634 0.000000
vt 0.062502 0.000000
vt 0.625000 0.693862
vt 0.625000 0.000000
vt 0.000000 0.693862
vt 0.000000 0.000000
vt 0.375000 0.693862
vt 0.375000 0.000000

# vertex normals
vn -0.000002 0.000000 1.000000
vn -0.866029 0.000000 0.499993
vn -0.866024 -0.000000 -0.500003
vn -0.000002 -0.000000 -1.000000
vn 0.866023 -0.000000 -0.500005
vn 0.866028 0.000000 0.499995
vn 0.000000 0.000000 1.000000
vn -0.866029 0.000000 0.499994
vn -0.866023 -0.000000 -0.500004
vn 0.000000 -0.000000 -1.000000
vn 0.866023 -0.000000 -0.500004
vn 0.866029 0.000000 0.499994
vn 0.000001 0.000000 1.000000
vn -0.866028 0.000000 0.499995
vn -0.866023 -0.000000 -0.500005
vn 0.000001 -0.000000 -1.000000
vn -0.000001 0.000000 1.000000
vn -0.000001 -0.000000 -1.000000
vn -0.866028 0.000000 0.499995
vn -0.866023 -0.000000 -0.500004
vn 0.866023 -0.000000 -0.500004
vn 0.866028 0.000000 0.499995
vn -0.000001 0.000000 1.000000
vn -0.000001 -0.000000 -1.000000
vn 0.000001 0.000000 1.000000
vn 0.000001 -0.000000 -1.000000
vn 0.000000 0.000000 1.000000
vn 0.000000 -0.000000 -1.000000
vn 0.866023 -0.000000 -0.500004
vn 0.866028 0.000000 0.499995
vn 0.000002 0.000000 1.000000
vn 0.000002 -0.000000 -1.000000
vn 0.866024 -0.000000 -0.500003
vn 0.866029 0.000000 0.499993
vn 0.000000 1.000000 -0.000000
vn 0.000000 -1.000000 0.000000

# Mesh
g Cylinder.011
usemtl DefaultMaterial
f 4/4/1 1/1/1 2/2/2
f 2/2/2 3/3/2 4/4/1
f 3/3/2 2/2/2 5/5/3
f 5/5/3 6/6/3 3/3/2
f 6/6/3 5/5/3 7/7/4
f 7/7/4 8/8/4 6/6/3
f 8/12/4 7/9/4 9/10/5
f 9/10/5 10/11/5 8/12/4
f 10/11/5 9/10/5 11/13/6
f 11/13/6 12/14/6 10/11/5
f 12/14/6 11/13/6 1/1/1
f 1/1/1 4/4/1 12/14/6
f 16/4/1 13/1/1 14/2/2
f 14/2/2 15/3/2 16/4/1
f 15/3/2 14/2/2 17/5/3
f 17/5/3 18/6/3 15/3/2
f 18/6/3 17/5/3 19/7/4
f 19/7/4 20/8/4 18/6/3
f 20/12/4 19/9/4 21/10/5
f 21/10/5 22/11/5 20/12/4
f 22/11/5 21/10/5 23/13/6
f 23/13/6 24/14/6 22/11/5
f 24/14/6 23/13/6 13/1/1
f 13/1/1 16/4/1 24/14/6
f 28/4/7 25/1/7 26/2/8
f 26/2/8 27/3/8 28/4/7
f 27/3/8 26/2/8 29/5/9
f 29/5/9 30/6/9 27/3/8
f 30/6/9 29/5/9 31/7/10
f 31/7/10 32/8/10 30/6/9
f 32/12/10 31/9/10 33/10/11
f 33/10/11 34/11/11 32/12/10
f 34/11/11 33/10/11 35/13/12
f 35/13/12 36/14/12 34/11/11
f 36/14/12 35/13/12 25/1/7
f 25/1/7 28/4/7 36/14/12
f 40/4/13 37/1/13 38/2/14
f 38/2/14 39/3/14 40/4/13
f 39/3/14 38/2/14 41/5/15
f 41/5/15 42/6/15 39/3/14
f 42/6/15 41/5/15 43/7/16
f 43/7/16 44/8/16 42/6/15
f 44/12/16 43/9/16 45/10/11
f 45/10/11 46/11/11 44/12/16
f 46/11/11 45/10/11 47/13/12
f 47/13/12 48/14/12 46/11/11
f 48/14/12 47/13/12 37/1/13
f 37/1/13 40/4/13 48/14/12
f 52/4/17 49/1/17 50/2/8
f 50/2/8 51/3/8 52/4/17
f 51/3/8 50/2/8 53/5/9
f 53/5/9 54/6/9 51/3/8
f 54/6/9 53/5/9 55/7/18
f 55/7/18 56/8/18 54/6/9
f 56/12/18 55/9/18 57/10/5
f 57/10/5 58/11/5 56/12/18
f 58/11/5 57/10/5 59/13/6
f 59/13/6 60/14/6 58/11/5
f 60/14/6 59/13/6 49/1/17
f 49/1/17 52/4/17 60/14/6
f 64/4/7 61/1/7 62/2/19
f 62/2/19 63/3/19 64/4/7
f 63/3/19 62/2/19 65/5/20
f 65/5/20 66/6/20 63/3/19
f 66/6/20 65/5/20 67/7/10
f 67/7/10 68/8/10 66/6/20
f 68/12/10 67/9/10 69/10/21
f 69/10/21 70/11/21 68/12/10
f 70/11/21 69/10/21 71/13/22
f 71/13/22 72/14/22 70/11/21
f 72/14/22 71/13/22 61/1/7
f 61/1/7 64/4/7 72/14/22
f 76/4/23 73/1/23 74/2/8
f 74/2/8 75/3/8 76/4/23
f 75/3/8 74/2/8 77/5/9
f 77/5/9 78/6/9 75/3/8
f 78/6/9 77/5/9 79/7/24
f 79/7/24 80/8/24 78/6/9
f 80/12/24 79/9/24 81/10/21
f 81/10/21 82/11/21 80/12/24
f 82/11/21 81/10/21 83/13/22
f 83/13/22 84/14/22 82/11/21
f 84/14/22 83/13/22 73/1/23
f 73/1/23 76/4/23 84/14/22
f 88/4/25 85/1/25 86/2/19
f 86/2/19 87/3/19 88/4/25
f 87/3/19 86/2/19 89/5/20
f 89/5/20 90/6/20 87/3/19
f 90/6/20 89/5/20 91/7/26
f 91/7/26 92/8/26 90/6/20
f 92/12/26 91/9/26 93/10/11
f 93/10/11 94/11/11 92/12/26
f 94/11/11 93/10/11 95/13/12
f 95/13/12 96/14/12 94/11/11
f 96/14/12 95/13/12 85/1/25
f 85/1/25 88/4/25 96/14/12
f 100/4/7 97/1/7 98/2/19
f 98/2/19 99/3/19 100/4/7
f 99/3/19 98/2/19 101/5/20
f 101/5/20 102/6/20 99/3/19
f 102/6/20 101/5/20 103/7/10
f 103/7/10 104/8/10 102/6/20
f 104/12/10 103/9/10 105/10/21
f 105/10/21 106/11/21 104/12/10
f 106/11/21 105/10/21 107/13/22
f 107/13/22 108/14/22 106/11/21
f 108/14/22 107/13/22 97/1/7
f 97/1/7 100/4/7 108/14/22
f 112/4/7 109/1/7 110/2/19
f 110/2/19 111/3/19 112/4/7
f 111/3/19 110/2/19 113/5/20
f 113/5/20 114/6/20 111/3/19
f 114/6/20 113/5/20 115/7/10
f 115/7/10 116/8/10 114/6/20
f 116/12/10 115/9/10 117/10/21
f 117/10/21 118/11/21 116/12/10
f 118/11/21 117/10/21 119/13/22
f 119/13/22 120/14/22 118/11/21
f 120/14/22 119/13/22 109/1/7
f 109/1/7 112/4/7 120/14/22
f 124/4/27 121/1/27 122/2/19
f 122/2/19 123/3/19 124/4/27
f 123/3/19 122/2/19 125/5/20
f 125/5/20 126/6/20 123/3/19
f 126/6/20 125/5/20 127/7/28
f 127/7/28 128/8/28 126/6/20
f 128/12/28 127/9/28 129/10/29
f 129/10/29 130/11/29 128/12/28
f 130/11/29 129/10/29 131/13/30
f 131/13/30 132/14/30 130/11/29
f 132/14/30 131/13/30 121/1/27
f 121/1/27 124/4/27 132/14/30
f 136/4/7 133/1/7 134/2/19
f 134/2/19 135/3/19 136/4/7
f 135/3/19 134/2/19 137/5/20
f 137/5/20 138/6/20 135/3/19
f 138/6/20 137/5/20 139/7/10
f 139/7/10 140/8/10 138/6/20
f 140/12/10 139/9/10 141/10/21
f 141/10/21 142/11/21 140/12/10
f 142/11/21 141/10/21 143/13/22
f 143/13/22 144/14/22 142/11/21
f 144/14/22 143/13/22 133/1/7
f 133/1/7 136/4/7 144/14/22
f 148/4/25 145/1/25 146/2/19
f 146/2/19 147/3/19 148/4/25
f 147/3/19 146/2/19 149/5/20
f 149/5/20 150/6/20 147/3/19
f 150/6/20 149/5/20 151/7/26
f 151/7/26 152/8/26 150/6/20
f 152/12/26 151/9/26 153/10/11
f 153/10/11 154/11/11 152/12/26
f 154/11/11 153/10/11 155/13/12
f 155/13/12 156/14/12 154/11/11
f 156/14/12 155/13/12 145/1/25
f 145/1/25 148/4/25 156/14/12
f 160/4/7 157/1/7 158/2/19
f 158/2/19 159/3/19 160/4/7
f 159/3/19 158/2/19 161/5/20
f 161/5/20 162/6/20 159/3/19
f 162/6/20 161/5/20 163/7/10
f 163/7/10 164/8/10 162/6/20
f 164/12/10 163/9/10 165/10/21
f 165/10/21 166/11/21 164/12/10
f 166/11/21 165/10/21 167/13/22
f 167/13/22 168/14/22 166/11/21
f 168/14/22 167/13/22 157/1/7
f 157/1/7 160/4/7 168/14/22
f 172/4/7 169/1/7 170/2/19
f 170/2/19 171/3/19 172/4/7
f 171/3/19 170/2/19 173/5/20
f 173/5/20 174/6/20 171/3/19
f 174/6/20 173/5/20 175/7/10
f 175/7/10 176/8/10 174/6/20
f 176/12/10 175/9/10 177/10/21
f 177/10/21 178/11/21 176/12/10
f 178/11/21 177/10/21 179/13/22
f 179/13/22 180/14/22 178/11/21
f 180/14/22 179/13/22 169/1/7
f 169/1/7 172/4/7 180/14/22
f 184/4/17 181/1/17 182/2/8
f 182/2/8 183/3/8 184/4/17
f 183/3/8 182/2/8 185/5/9
f 185/5/9 186/6/9 183/3/8
f 186/6/9 185/5/9 187/7/18
f 187/7/18 188/8/18 186/6/9
f 188/12/18 187/9/18 189/10/5
f 189/10/5 190/11/5 188/12/18
f 190/11/5 189/10/5 191/13/6
f 191/13/6 192/14/6 190/11/5
f 192/14/6 191/13/6 181/1/17
f 181/1/17 184/4/17 192/14/6
f 196/4/17 193/1/17 194/2/8
f 194/2/8 195/3/8 196/4/17
f 195/3/8 194/2/8 197/5/9
f 197/5/9 198/6/9 195/3/8
f 198/6/9 197/5/9 199/7/18
f 199/7/18 200/8/18 198/6/9
f 200/12/18 199/9/18 201/10/5
f 201/10/5 202/11/5 200/12/18
f 202/11/5 201/10/5 203/13/6
f 203/13/6 204/14/6 202/11/5
f 204/14/6 203/13/6 193/1/17
f 193/1/17 196/4/17 204/14/6
f 208/4/13 205/1/13 206/2/14
f 206/2/14 207/3/14 208/4/13
f 207/3/14 206/2/14 209/5/15
f 209/5/15 210/6/15 207/3/14
f 210/6/15 209/5/15 211/7/16
f 211/7/16 212/8/16 210/6/15
f 212/12/16 211/9/16 213/10/11
f 213/10/11 214/11/11 212/12/16
f 214/11/11 213/10/11 215/13/12
f 215/13/12 216/14/12 214/11/11
f 216/14/12 215/13/12 205/1/13
f 205/1/13 208/4/13 216/14/12
f 220/4/17 217/1/17 218/2/8
f 218/2/8 219/3/8 220/4/17
f 219/3/8 218/2/8 221/5/9
f 221/5/9 222/6/9 219/3/8
f 222/6/9 221/5/9 223/7/18
f 223/7/18 224/8/18 222/6/9
f 224/12/18 223/9/18 225/10/5
f 225/10/5 226/11/5 224/12/18
f 226/11/5 225/10/5 227/13/6
f 227/13/6 228/14/6 226/11/5
f 228/14/6 227/13/6 217/1/17
f 217/1/17 220/4/17 228/14/6
f 232/4/31 229/1/31 230/2/14
f 230/2/14 231/3/14 232/4/31
f 231/3/14 230/2/14 233/5/15
f 233/5/15 234/6/15 231/3/14
f 234/6/15 233/5/15 235/7/32
f 235/7/32 236/8/32 234/6/15
f 236/12/32 235/9/32 237/10/33
f 237/10/33 238/11/33 236/12/32
f 238/11/33 237/10/33 239/13/34
f 239/13/34 240/14/34 238/11/33
f 240/14/34 239/13/34 229/1/31
f 229/1/31 232/4/31 240/14/34

# Mesh
g Cube.002
usemtl DefaultMaterial
f 244/18/7 241/15/7 242/16/7
f 242/16/7 243/17/7 244/18/7
f 248/22/10 245/19/10 246/20/10
f 246/20/10 247/21/10 248/22/10
f 242/16/35 241/15/35 249/23/35
f 249/23/35 250/24/35 242/16/35
f 252/28/36 251/25/36 248/26/36
f 248/26/36 247/27/36 252/28/36
f 244/18/36 243/17/36 253/29/36
f 253/29/36 254/30/36 244/18/36
f 256/34/36 244/31/36 254/32/36
f 254/32/36 255/33/36 256/34/36
f 251/38/36 256/35/36 255/36/36
f 255/36/36 248/37/36 251/38/36
f 258/40/35 257/39/35 246/20/35
f 246/20/35 245/19/35 258/40/35
f 260/44/35 258/41/35 245/42/35
f 245/42/35 259/43/35 260/44/35
f 241/48/35 260/45/35 259/46/35
f 259/46/35 249/47/35 241/48/35
f 253/50/10 250/24/10 249/23/10
f 249/23/10 254/49/10 253/50/10
f 254/52/10 249/47/10 259/46/10
f 259/46/10 255/51/10 254/52/10
f 255/54/10 259/43/10 245/42/10
f 245/42/10 248/53/10 255/54/10
f 252/28/7 257/39/7 258/40/7
f 258/40/7 251/25/7 252/28/7
f 251/38/7 258/41/7 260/44/7
f 260/44/7 256/35/7 251/38/7
f 256/34/7 260/45/7 241/48/7
f 241/48/7 244/31/7 256/34/7

# Mesh
g Cube.003
usemtl DefaultMaterial
f 264/58/7 261/55/7 262/56/7
f 262/56/7 263/57/7 264/58/7
f 268/62/10 265/59/10 266/60/10
f 266/60/10 267/61/10 268/62/10
f 262/56/35 261/55/35 269/63/35
f 269/63/35 270/64/35 262/56/35
f 272/68/36 271/65/36 268/66/36
f 268/66/36 267/67/36 272/68/36
f 264/58/36 263/57/36 273/69/36
f 273/69/36 274/70/36 264/58/36
f 276/74/36 264/71/36 274/72/36
f 274/72/36 275/73/36 276/74/36
f 271/78/36 276/75/36 275/76/36
f 275/76/36 268/77/36 271/78/36
f 278/80/35 277/79/35 266/60/35
f 266/60/35 265/59/35 278/80/35
f 280/84/35 278/81/35 265/82/35
f 265/82/35 279/83/35 280/84/35
f 261/88/35 280/85/35 279/86/35
f 279/86/35 269/87/35 261/88/35
f 273/90/10 270/64/10 269/63/10
f 269/63/10 274/89/10 273/90/10
f 274/92/10 269/87/10 279/86/10
f 279/86/10 275/91/10 274/92/10
f 275/94/10 279/83/10 265/82/10
f 265/82/10 268/93/10 275/94/10
f 272/68/7 277/79/7 278/80/7
f 278/80/7 271/65/7 272/68/7
f 271/78/7 278/81/7 280/84/7
f 280/84/7 276/75/7 271/78/7
f 276/74/7 280/85/7 261/88/7
f 261/88/7 264/71/7 276/74/7
