# File produced by Open Asset Import Library (http://www.assimp.sf.net)
# (assimp v3.1.202510665)

mtllib fliper.mtl

# vertex positions
v 186.610580 22.235825 267.970123
v 220.502869 -0.000008 248.397400
v 220.502869 -0.000008 228.446457
v 190.138580 23.654152 228.446442
v -220.502869 -0.000008 248.397400
v -186.610580 22.235825 267.970123
v -190.138580 23.654152 228.446442
v -220.502869 -0.000008 228.446457
v -66.703011 23.654152 228.446442
v -190.138580 51.109528 230.113785
v -66.703011 51.109528 230.113785
v 38.820732 0.000038 512.284790
v 104.204468 0.000038 512.284790
v 143.518600 11.240227 465.854065
v 59.331223 11.240227 482.970886
v -195.593048 0.000031 466.472839
v -104.204468 0.000038 512.284790
v -143.518600 11.240227 465.854065
v -220.502869 0.000023 417.536743
v 195.593048 0.000031 466.472839
v 220.502869 0.000023 417.536743
v -195.593048 -0.990189 466.472839
v -104.204468 -0.990181 512.284790
v 66.703011 23.654152 228.446442
v 82.146980 -0.000008 228.446457
v 195.593048 -0.990189 466.472839
v 220.502869 -0.990196 417.536743
v 69.520615 22.235825 267.970123
v 66.703011 49.691200 238.867249
v 186.610580 49.691200 238.867249
v 190.138580 51.109528 230.113785
v 66.703011 51.109528 230.113785
v -186.610580 49.691200 238.867249
v -69.520630 22.235825 267.970123
v -66.703011 49.691200 238.867249
v 66.703011 76.740532 215.489532
v 66.703011 74.200974 231.162918
v -59.331242 11.240227 482.970886
v 220.502869 -0.990227 248.397400
v -220.502869 -0.990227 248.397400
v -220.502869 -0.990196 417.536743
v -82.146980 -0.000008 228.446457
v -82.146980 -0.990227 228.446457
v -220.502869 -0.990227 228.446457
v 220.502869 -0.990227 228.446457
v -38.820728 0.000038 512.284790
v 66.703011 27.580688 212.504120
v -66.703011 74.200974 231.162918
v -66.703011 76.740532 215.489532
v -66.703011 27.580688 212.504120
v 82.146980 -0.990227 248.397400
v 82.146980 -0.990227 228.446457
v 38.820732 -0.990181 512.284790
v 104.204468 -0.990181 512.284790
v -82.146980 -0.990227 248.397400
v -38.820728 -0.990181 512.284790
v -150.770065 14.690445 395.515808
v -180.002838 24.137009 260.312012
v 180.002838 24.137009 260.312012
v 150.770065 14.690445 395.515808
v -98.649612 10.775269 474.158569
v 98.649612 10.775269 474.158569
v -150.770065 19.200111 395.364929
v 150.770065 19.200111 395.364929
v 180.002838 46.767246 260.161102
v -180.002838 46.767246 260.161102
v -98.649612 11.793381 474.007660
v 98.649612 11.793381 474.007660
v -180.002838 23.966255 234.704666
v 180.002838 23.966255 234.704666
v -180.002838 46.596497 234.553772
v 180.002838 46.596497 234.553772
v 32.565128 9.072357 253.048553
v 32.565128 145.798126 192.981995
v 32.565128 135.089157 166.933792
v 32.565128 26.138130 227.000320
v 59.415241 135.089157 166.933792
v 59.415241 26.138130 227.000320
v 59.415241 145.798126 192.981995
v 59.415241 9.072357 253.048553
v -32.598568 135.089157 166.933792
v -51.432846 131.993958 157.719757
v 51.399410 131.993958 157.719757
v -59.448681 135.089157 166.933792
v -59.448681 145.798126 192.981995
v -64.308029 146.235931 195.202148
v -64.308029 134.651367 164.713638
v -59.448681 9.072357 253.048553
v -59.448681 26.138130 227.000320
v -32.598568 26.138130 227.000320
v -32.598568 145.798126 192.981995
v -32.598568 9.072357 253.048553
v 64.274582 134.651367 164.713638
v 64.274582 146.235931 195.202148
v 51.399410 148.893326 202.196030
v -51.432846 148.893326 202.196030
v 55.326725 205.036224 202.194794
v -55.360180 205.036224 202.194794
v -69.218796 174.209991 127.213821
v -55.360180 168.458130 113.223099
v -69.218796 199.284393 188.204041
v 69.185333 174.209991 127.213821
v 69.185333 199.284393 188.204041
v 55.326725 168.458130 113.223099

# UV coordinates
vt 0.733343 0.006114
vt 0.778515 0.000000
vt 0.791459 0.015069
vt 0.757706 0.048145
vt 0.777644 0.571540
vt 0.729583 0.564651
vt 0.756216 0.520598
vt 0.791459 0.555616
vt 0.753858 0.359641
vt 0.720649 0.510950
vt 0.722575 0.359874
vt 0.344048 0.230771
vt 0.344104 0.150435
vt 0.402399 0.104271
vt 0.381795 0.205651
vt 0.398490 0.510478
vt 0.343678 0.400414
vt 0.401991 0.446752
vt 0.456807 0.542048
vt 0.398986 0.040639
vt 0.457225 0.009190
vt 0.942222 0.532137
vt 0.942301 0.432093
vt 0.944047 0.432084
vt 0.943968 0.532128
vt 0.755045 0.204117
vt 0.781651 0.187422
vt 0.945721 0.225614
vt 0.946141 0.318455
vt 0.944467 0.318463
vt 0.944047 0.225622
vt 0.639742 0.049932
vt 0.640601 0.191873
vt 0.639726 0.501327
vt 0.661135 0.551374
vt 0.661135 0.000000
vt 0.712142 0.203523
vt 0.713479 0.060372
vt 0.724113 0.056247
vt 0.722622 0.203597
vt 0.664803 0.199755
vt 0.665742 0.060051
vt 0.718570 0.521288
vt 0.722407 0.046542
vt 0.661135 0.505454
vt 0.664036 0.362877
vt 0.711963 0.359828
vt 0.709854 0.506445
vt 0.709338 0.792018
vt 0.710403 0.781408
vt 0.740101 0.761987
vt 0.738195 0.780985
vt 0.381558 0.345288
vt 0.640643 0.359072
vt 0.946031 0.129675
vt 0.944356 0.129683
vt 0.941792 0.335280
vt 0.942041 0.235249
vt 0.943787 0.235239
vt 0.943538 0.335271
vt 0.780768 0.376825
vt 0.941856 0.200073
vt 0.942057 0.100041
vt 0.943803 0.100032
vt 0.943602 0.200064
vt 0.945878 0.095938
vt 0.944204 0.095946
vt 0.343910 0.320085
vt 0.677328 0.781408
vt 0.680878 0.761987
vt 0.759193 0.601571
vt 0.759193 0.761987
vt 0.740101 0.601571
vt 0.680879 0.601571
vt 0.790087 0.601571
vt 0.790087 0.761987
vt 0.677328 0.582150
vt 0.710403 0.582150
vt 0.709339 0.571540
vt 0.738195 0.582573
vt 0.661136 0.761987
vt 0.661135 0.601571
vt 0.025117 0.175473
vt 0.001184 0.175397
vt 0.001782 0.009186
vt 0.025750 0.009272
vt 0.342576 0.230772
vt 0.229222 0.010009
vt 0.288001 0.040224
vt 0.342703 0.150434
vt 0.227449 0.539746
vt 0.023981 0.538644
vt 0.024680 0.372304
vt 0.342438 0.320085
vt 0.342276 0.400412
vt 0.286518 0.510097
vt 0.000000 0.538536
vt 0.000735 0.372230
vt 0.946141 0.000000
vt 0.944467 0.000008
vt 0.942301 0.000009
vt 0.944047 0.000000
vt 0.945996 0.414380
vt 0.944322 0.414388
vt 0.398129 0.604104
vt 0.555620 0.570135
vt 0.555620 0.988466
vt 0.398129 0.954497
vt 0.306632 0.664669
vt 0.306632 0.893933
vt 0.212518 0.611712
vt 0.207483 0.944949
vt 0.052944 0.969964
vt 0.060309 0.583386
vt 0.302631 0.664693
vt 0.302631 0.893957
vt 0.303846 0.895434
vt 0.209931 0.949493
vt 0.058863 0.995135
vt 0.585377 0.570135
vt 0.585377 0.988466
vt 0.215052 0.607352
vt 0.303864 0.663311
vt 0.067498 0.558275
vt 0.000000 0.973304
vt 0.005994 0.579080
vt 0.030776 0.579456
vt 0.024781 0.973680
vt 0.029081 1.000000
vt 0.036098 0.551374
vt 0.841519 0.825874
vt 0.661944 0.825874
vt 0.661135 0.792018
vt 0.810133 0.805452
vt 0.813032 0.910740
vt 0.664035 0.924173
vt 0.661135 0.892017
vt 0.810133 0.878584
vt 0.661944 0.858161
vt 0.841519 0.858161
vt 0.630935 0.667880
vt 0.630935 0.589517
vt 0.642624 0.566850
vt 0.642624 0.690539
vt 0.630917 0.557240
vt 0.597077 0.557234
vt 0.594386 0.551376
vt 0.633598 0.551374
vt 0.790087 0.637682
vt 0.969662 0.637682
vt 0.970471 0.671539
vt 0.821474 0.658105
vt 0.967572 0.703695
vt 0.818574 0.690261
vt 0.821474 0.584973
vt 0.970471 0.571540
vt 0.969662 0.605396
vt 0.790087 0.605396
vt 0.597084 0.700155
vt 0.630924 0.700160
vt 0.633615 0.706018
vt 0.594403 0.706020
vt 0.597066 0.667877
vt 0.597066 0.589515
vt 0.585377 0.690545
vt 0.585377 0.566856
vt 0.893405 0.120064
vt 0.857422 0.238365
vt 0.791459 0.223237
vt 0.830191 0.095900
vt 0.941792 0.064053
vt 0.927009 0.074156
vt 0.896384 0.015906
vt 0.915241 0.000000
vt 0.901957 0.104332
vt 0.844117 0.075536
vt 0.855765 0.256194
vt 0.859771 0.295208
vt 0.801899 0.326540
vt 0.791687 0.247905
vt 0.866425 0.311832
vt 0.941792 0.409861
vt 0.889828 0.455769
vt 0.808704 0.350252

# vertex normals
vn 0.342398 0.907543 0.243165
vn 0.867983 0.495429 0.034001
vn 0.708196 0.358141 -0.608435
vn 0.524818 0.319880 -0.788824
vn -0.867983 0.495429 0.034001
vn -0.342399 0.907543 0.243165
vn -0.524818 0.319880 -0.788824
vn -0.708196 0.358141 -0.608435
vn -0.254469 -0.261799 -0.930971
vn -0.628717 0.596036 -0.499456
vn -0.916000 0.313264 -0.250618
vn 0.006837 0.572990 0.819534
vn 0.187569 0.550994 0.813156
vn 0.137989 0.975616 0.170681
vn 0.014321 0.979969 0.198635
vn -0.584285 0.531902 0.612937
vn -0.187569 0.550994 0.813156
vn -0.137989 0.975616 0.170681
vn -0.811678 0.543873 0.213028
vn 0.584285 0.531902 0.612937
vn 0.811678 0.543873 0.213028
vn -0.539818 -0.643100 0.543157
vn -0.173231 -0.658767 0.732132
vn 0.254469 -0.261799 -0.930971
vn 0.000000 -0.000000 -1.000000
vn 0.539818 -0.643100 0.543157
vn 0.732093 -0.658181 0.175607
vn 0.001255 0.919344 0.393453
vn 0.186817 0.727728 0.659932
vn 0.547356 0.736486 0.397480
vn 0.628717 0.596036 -0.499456
vn 0.916000 0.313264 -0.250618
vn -0.547356 0.736486 0.397480
vn -0.001255 0.919344 0.393453
vn -0.186817 0.727728 0.659932
vn 0.572274 0.640354 -0.512297
vn 0.605837 0.601559 0.520662
vn -0.014321 0.979969 0.198635
vn 0.707107 -0.707107 0.000000
vn -0.707107 -0.707107 0.000000
vn -0.732093 -0.658181 0.175607
vn 0.000000 -0.000000 -1.000000
vn 0.000000 -0.707107 -0.707107
vn -0.577350 -0.577350 -0.577350
vn 0.577350 -0.577350 -0.577350
vn -0.006837 0.572990 0.819534
vn 0.587460 -0.479592 -0.651830
vn -0.605837 0.601559 0.520662
vn -0.572274 0.640354 -0.512297
vn -0.587460 -0.479592 -0.651830
vn -0.000000 -1.000000 0.000000
vn -0.000000 -0.707107 0.707107
vn 0.173231 -0.658767 0.732132
vn -0.000000 -0.707107 0.707107
vn -0.694106 -0.671613 0.259137
vn -0.734875 -0.675450 0.061038
vn 0.734875 -0.675450 0.061038
vn 0.694106 -0.671613 0.259137
vn -0.372887 -0.598751 0.708839
vn 0.372887 -0.598751 0.708839
vn -0.678579 0.632370 0.373683
vn 0.678579 0.632370 0.373683
vn 0.700702 0.700984 0.132811
vn -0.700702 0.700984 0.132811
vn -0.373708 0.615644 0.693776
vn 0.373708 0.615644 0.693776
vn -0.577350 -0.581187 -0.573488
vn 0.577350 -0.581187 -0.573488
vn -0.577350 0.573488 -0.581187
vn 0.577350 0.573488 -0.581187
vn -0.344731 0.377563 0.859422
vn -0.312394 -0.742506 0.592533
vn -0.269334 -0.962192 0.040569
vn -0.860622 -0.245865 -0.445960
vn 0.274241 -0.960944 0.037123
vn 0.860622 -0.245865 -0.445960
vn 0.308271 -0.745128 0.591399
vn 0.344731 0.377563 0.859422
vn 0.269334 -0.962192 0.040569
vn -0.210144 -0.952521 -0.220325
vn 0.210144 -0.952521 -0.220325
vn -0.274241 -0.960944 0.037123
vn -0.308271 -0.745128 0.591399
vn -0.683947 -0.533445 0.497648
vn -0.680409 -0.732755 0.010603
vn 0.312394 -0.742506 0.592533
vn 0.680410 -0.732755 0.010603
vn 0.683947 -0.533445 0.497648
vn 0.220597 -0.534826 0.815658
vn -0.220597 -0.534827 0.815658
vn 0.307648 0.000229 0.951500
vn -0.307649 0.000229 0.951500
vn -0.835321 -0.447094 -0.319915
vn -0.286434 -0.740459 -0.608009
vn -0.861767 -0.042261 0.505540
vn 0.835321 -0.447094 -0.319915
vn 0.861767 -0.042260 0.505540
vn 0.286434 -0.740459 -0.608010

# Mesh
g Plane.009
usemtl DefaultMaterial
f 4/4/4 1/1/1 2/2/2
f 2/2/2 3/3/3 4/4/4
f 8/8/8 5/5/5 6/6/6
f 6/6/6 7/7/7 8/8/8
f 11/11/11 9/9/9 7/7/7
f 7/7/7 10/10/10 11/11/11
f 15/15/15 12/12/12 13/13/13
f 13/13/13 14/14/14 15/15/15
f 19/19/19 16/16/16 17/17/17
f 17/17/17 18/18/18 19/19/19
f 13/13/13 20/20/20 21/21/21
f 21/21/21 14/14/14 13/13/13
f 23/25/23 17/22/17 16/23/16
f 16/23/16 22/24/22 23/25/23
f 25/27/25 24/26/24 4/4/4
f 4/4/4 3/3/3 25/27/25
f 27/31/27 21/28/21 20/29/20
f 20/29/20 26/30/26 27/31/27
f 28/33/28 15/15/15 14/14/14
f 14/14/14 1/32/1 28/33/28
f 5/35/5 19/19/19 18/18/18
f 18/18/18 6/34/6 5/35/5
f 1/32/1 14/14/14 21/21/21
f 21/21/21 2/36/2 1/32/1
f 32/40/32 29/37/29 30/38/30
f 30/38/30 31/39/31 32/40/32
f 29/37/29 28/41/28 1/42/1
f 1/42/1 30/38/30 29/37/29
f 10/10/10 7/7/7 6/6/6
f 6/6/6 33/43/33 10/10/10
f 30/44/30 1/1/1 4/4/4
f 4/4/4 31/39/31 30/44/30
f 33/48/33 6/45/6 34/46/34
f 34/46/34 35/47/35 33/48/33
f 35/47/35 34/46/34 28/41/28
f 28/41/28 29/37/29 35/47/35
f 10/10/10 33/48/33 35/47/35
f 35/47/35 11/11/11 10/10/10
f 37/52/37 29/49/29 32/50/32
f 32/50/32 36/51/36 37/52/37
f 6/34/6 18/18/18 38/53/38
f 38/53/38 34/54/34 6/34/6
f 34/54/34 38/53/38 15/15/15
f 15/15/15 28/33/28 34/54/34
f 39/56/39 2/55/2 21/28/21
f 21/28/21 27/31/27 39/56/39
f 41/60/41 19/57/19 5/58/5
f 5/58/5 40/59/40 41/60/41
f 8/8/8 7/7/7 9/9/9
f 9/9/9 42/61/42 8/8/8
f 42/61/42 9/9/9 24/26/24
f 24/26/24 25/27/25 42/61/42
f 44/65/44 8/62/8 42/63/42
f 42/63/42 43/64/43 44/65/44
f 45/67/45 3/66/3 2/55/2
f 2/55/2 39/56/39 45/67/45
f 18/18/18 17/17/17 46/68/46
f 46/68/46 38/53/38 18/18/18
f 38/53/38 46/68/46 12/12/12
f 12/12/12 15/15/15 38/53/38
f 31/39/31 4/4/4 24/26/24
f 24/26/24 32/40/32 31/39/31
f 36/51/36 32/50/32 24/69/24
f 24/69/24 47/70/47 36/51/36
f 49/73/49 48/71/48 37/72/37
f 37/72/37 36/51/36 49/73/49
f 36/51/36 47/70/47 50/74/50
f 50/74/50 49/73/49 36/51/36
f 48/71/48 35/75/35 29/76/29
f 29/76/29 37/72/37 48/71/48
f 50/74/50 9/77/9 11/78/11
f 11/78/11 49/73/49 50/74/50
f 49/73/49 11/78/11 35/79/35
f 35/79/35 48/80/48 49/73/49
f 47/70/47 24/81/24 9/82/9
f 9/82/9 50/74/50 47/70/47
f 39/86/39 51/83/51 52/84/43
f 52/84/43 45/85/45 39/86/39
f 54/90/53 53/87/52 51/83/51
f 54/90/53 51/83/51 39/86/39
f 54/90/53 39/86/39 27/88/27
f 27/88/27 26/89/26 54/90/53
f 22/96/22 41/91/41 40/92/40
f 22/96/22 40/92/40 55/93/51
f 22/96/22 55/93/51 56/94/54
f 56/94/54 23/95/23 22/96/22
f 53/87/52 56/94/54 55/93/51
f 55/93/51 51/83/51 53/87/52
f 55/93/51 40/92/40 44/97/44
f 44/97/44 43/98/43 55/93/51
f 51/83/51 55/93/51 43/98/43
f 43/98/43 52/84/43 51/83/51
f 52/100/43 25/99/25 3/66/3
f 3/66/3 45/67/45 52/100/43
f 54/90/53 13/13/13 12/12/12
f 12/12/12 53/87/52 54/90/53
f 43/64/43 42/63/42 25/101/25
f 25/101/25 52/102/43 43/64/43
f 40/59/40 5/58/5 8/62/8
f 8/62/8 44/65/44 40/59/40
f 56/94/54 46/68/46 17/17/17
f 17/17/17 23/95/23 56/94/54
f 53/87/52 12/12/12 46/68/46
f 46/68/46 56/94/54 53/87/52
f 22/24/22 16/23/16 19/57/19
f 19/57/19 41/60/41 22/24/22
f 26/30/26 20/29/20 13/103/13
f 13/103/13 54/104/53 26/30/26

# Mesh
g Plane.010
usemtl DefaultMaterial
f 60/108/58 57/105/55 58/106/56
f 58/106/56 59/107/57 60/108/58
f 62/110/60 61/109/59 57/105/55
f 57/105/55 60/108/58 62/110/60
f 66/114/64 63/111/61 64/112/62
f 64/112/62 65/113/63 66/114/64
f 63/111/61 67/115/65 68/116/66
f 68/116/66 64/112/62 63/111/61
f 67/115/65 61/109/59 62/110/60
f 62/110/60 68/116/66 67/115/65
f 68/116/66 62/117/60 60/118/58
f 60/118/58 64/112/62 68/116/66
f 64/112/62 60/118/58 59/119/57
f 59/119/57 65/113/63 64/112/62
f 70/121/68 59/107/57 58/106/56
f 58/106/56 69/120/67 70/121/68
f 63/111/61 57/122/55 61/123/59
f 61/123/59 67/115/65 63/111/61
f 66/114/64 58/124/56 57/122/55
f 57/122/55 63/111/61 66/114/64
f 72/128/70 70/125/68 69/126/67
f 69/126/67 71/127/69 72/128/70
f 71/127/69 66/114/64 65/113/63
f 65/113/63 72/128/70 71/127/69
f 72/128/70 65/113/63 59/119/57
f 59/119/57 70/129/68 72/128/70
f 69/130/67 58/124/56 66/114/64
f 66/114/64 71/127/69 69/130/67

# Mesh
g Plane.011
usemtl DefaultMaterial
f 76/134/74 73/131/71 74/132/72
f 74/132/72 75/133/73 76/134/74
f 78/138/76 76/135/74 75/136/73
f 75/136/73 77/137/75 78/138/76
f 80/140/78 78/138/76 77/137/75
f 77/137/75 79/139/77 80/140/78
f 73/131/71 80/140/78 79/139/77
f 79/139/77 74/132/72 73/131/71
f 83/144/81 75/141/73 81/142/79
f 81/142/79 82/143/80 83/144/81
f 87/148/85 84/145/82 85/146/83
f 85/146/83 86/147/84 87/148/85
f 89/152/74 88/149/71 85/150/83
f 85/150/83 84/151/82 89/152/74
f 90/154/76 89/152/74 84/151/82
f 84/151/82 81/153/79 90/154/76
f 92/158/78 90/155/76 81/156/79
f 81/156/79 91/157/86 92/158/78
f 88/149/71 92/158/78 91/157/86
f 91/157/86 85/150/83 88/149/71
f 94/162/88 79/159/77 77/160/75
f 77/160/75 93/161/87 94/162/88
f 75/141/73 74/163/72 91/164/86
f 91/164/86 81/142/79 75/141/73
f 96/166/90 91/164/86 74/163/72
f 74/163/72 95/165/89 96/166/90
f 95/165/89 74/163/72 79/159/77
f 79/159/77 94/162/88 95/165/89
f 85/146/83 91/164/86 96/166/90
f 96/166/90 86/147/84 85/146/83
f 77/160/75 75/141/73 83/144/81
f 83/144/81 93/161/87 77/160/75
f 82/143/80 81/142/79 84/145/82
f 84/145/82 87/148/85 82/143/80
f 98/170/92 96/167/90 95/168/89
f 95/168/89 97/169/91 98/170/92
f 100/174/94 82/171/80 87/172/85
f 87/172/85 99/173/93 100/174/94
f 101/176/95 86/175/84 96/167/90
f 96/167/90 98/170/92 101/176/95
f 103/180/97 94/177/88 93/178/87
f 93/178/87 102/179/96 103/180/97
f 104/184/98 83/181/81 82/182/80
f 82/182/80 100/183/94 104/184/98
f 102/179/96 93/178/87 83/181/81
f 83/181/81 104/184/98 102/179/96
f 97/169/91 95/168/89 94/177/88
f 94/177/88 103/180/97 97/169/91
f 99/173/93 87/172/85 86/175/84
f 86/175/84 101/176/95 99/173/93
