# File produced by Open Asset Import Library (http://www.assimp.sf.net)
# (assimp v3.1.202510665)

mtllib Hammer.mtl

# vertex positions
v -16.160536 314.951324 180.673187
v -16.160536 371.645905 180.673187
v -16.160536 371.645844 -275.355652
v -16.160536 314.951263 -275.355652
v 16.160536 314.951263 -275.355652
v 16.160536 371.645844 -275.355652
v 16.160536 371.645905 180.673187
v 16.160536 314.951324 180.673187
v -100.000000 162.160202 -289.312256
v -100.000000 517.032837 -289.312317
v -100.000000 517.032776 -433.606689
v -100.000000 162.160172 -433.606628
v 100.000000 517.032776 -433.606689
v 100.000000 162.160172 -433.606628
v 72.147186 162.160172 -461.459442
v 72.147186 517.032776 -461.459503
v -72.147186 517.032776 -461.459503
v -72.147186 162.160172 -461.459442
v 90.302170 526.730591 -429.589752
v 68.130203 526.730591 -451.761658
v -68.130203 526.730591 -451.761658
v -90.302170 526.730591 -429.589752
v -90.302170 526.730652 -293.329285
v -68.130203 526.730652 -271.157349
v 68.130203 526.730652 -271.157349
v 90.302170 526.730652 -293.329285
v 72.147186 517.032837 -261.459503
v 72.147186 162.160202 -261.459442
v 100.000000 162.160202 -289.312256
v 100.000000 517.032837 -289.312317
v -72.147186 517.032837 -261.459503
v -72.147186 162.160202 -261.459442
v -90.302170 152.462372 -293.329224
v -68.130203 152.462372 -271.157288
v -68.130203 152.462326 -451.761627
v -90.302170 152.462326 -429.589661
v 90.302170 152.462326 -429.589661
v 68.130203 152.462326 -451.761627
v 68.130203 152.462372 -271.157288
v 90.302170 152.462372 -293.329224
v -34.386139 292.118317 -233.619904
v -34.386139 392.859833 -233.619934
v -34.386139 392.859833 -289.299042
v -34.386139 292.118317 -289.299011
v 34.386139 292.118317 -289.299011
v 34.386139 392.859833 -289.299042
v 34.386139 392.859833 -233.619934
v 34.386139 292.118317 -233.619904

# UV coordinates
vt 0.952680 0.519980
vt 0.889133 0.519980
vt 0.889133 0.008832
vt 0.952680 0.008832
vt 0.789358 0.008832
vt 0.852905 0.008832
vt 0.852906 0.519980
vt 0.789358 0.519980
vt 0.952680 0.556207
vt 0.889133 0.556207
vt 0.988908 0.008832
vt 0.988908 0.519980
vt 0.619226 0.728339
vt 0.247235 0.724002
vt 0.247792 0.559804
vt 0.614131 0.563094
vt 0.242929 0.309246
vt 0.612101 0.312948
vt 0.611859 0.356103
vt 0.244357 0.352650
vt 0.247331 0.516834
vt 0.613395 0.520065
vt 0.012383 0.558145
vt 0.039317 0.531458
vt 0.204083 0.532216
vt 0.230770 0.559149
vt 0.230012 0.723915
vt 0.203079 0.750602
vt 0.038313 0.749844
vt 0.011626 0.722911
vt 0.217410 0.094453
vt 0.631977 0.100391
vt 0.621330 0.147813
vt 0.228215 0.141252
vt 0.661740 0.947493
vt 0.209498 0.947493
vt 0.245043 0.767634
vt 0.622327 0.772839
vt 0.636453 0.728072
vt 0.640133 0.769897
vt 0.228203 0.765027
vt 0.229996 0.517492
vt 0.630431 0.520560
vt 0.631523 0.562271
vt 0.227276 0.352395
vt 0.225424 0.310665
vt 0.629117 0.314124
vt 0.629163 0.355673
vt 0.210984 0.143801
vt 0.200102 0.104186
vt 0.648178 0.109970
vt 0.638000 0.149990
vt 0.678963 0.938042
vt 0.193041 0.938830
vt 0.657700 0.534491
vt 0.823500 0.529561
vt 0.851281 0.555738
vt 0.856211 0.721538
vt 0.830034 0.749319
vt 0.664234 0.754248
vt 0.849685 0.793567
vt 0.822592 0.911103
vt 0.757631 0.896129
vt 0.784724 0.778592
vt 0.994884 0.827036
vt 0.967791 0.944572
vt 0.902829 0.929598
vt 0.929923 0.812062
vt 0.864659 0.728605
vt 0.944897 0.747101
vt 0.887855 0.994559
vt 0.807618 0.976064

# vertex normals
vn -0.577350 -0.577350 0.577350
vn -0.577350 0.577350 0.577350
vn -0.707107 0.707107 -0.000000
vn -0.707107 -0.707107 0.000000
vn 0.707107 -0.707107 0.000000
vn 0.707107 0.707107 -0.000000
vn 0.577350 0.577350 0.577350
vn 0.577350 -0.577350 0.577350
vn -0.858735 -0.368852 0.355700
vn -0.858735 0.368852 0.355700
vn -0.858735 0.368852 -0.355700
vn -0.858735 -0.368852 -0.355700
vn 0.858735 0.368852 -0.355700
vn 0.858735 -0.368852 -0.355700
vn 0.355700 -0.368852 -0.858735
vn 0.355700 0.368852 -0.858735
vn -0.355700 0.368852 -0.858735
vn -0.355700 -0.368852 -0.858735
vn 0.404385 0.899119 -0.167502
vn 0.167502 0.899119 -0.404386
vn -0.167502 0.899119 -0.404385
vn -0.404386 0.899119 -0.167502
vn -0.404385 0.899119 0.167502
vn -0.167502 0.899119 0.404385
vn 0.167502 0.899119 0.404385
vn 0.404386 0.899119 0.167502
vn 0.355700 0.368852 0.858735
vn 0.355700 -0.368852 0.858735
vn 0.858735 -0.368852 0.355700
vn 0.858735 0.368852 0.355700
vn -0.355700 0.368852 0.858735
vn -0.355700 -0.368852 0.858735
vn -0.404386 -0.899119 0.167502
vn -0.167502 -0.899119 0.404385
vn -0.167502 -0.899119 -0.404385
vn -0.404385 -0.899119 -0.167502
vn 0.404386 -0.899119 -0.167502
vn 0.167502 -0.899119 -0.404385
vn 0.167502 -0.899119 0.404386
vn 0.404385 -0.899119 0.167502

# Mesh
g Cube.015
usemtl DefaultMaterial
f 4/4/4 1/1/1 2/2/2
f 2/2/2 3/3/3 4/4/4
f 8/8/8 5/5/5 6/6/6
f 6/6/6 7/7/7 8/8/8
f 1/1/1 8/9/8 7/10/7
f 7/10/7 2/2/2 1/1/1
f 1/1/1 4/4/4 5/11/5
f 5/11/5 8/12/8 1/1/1
f 7/7/7 6/6/6 3/3/3
f 3/3/3 2/2/2 7/7/7

# Mesh
g Cube.016
usemtl DefaultMaterial
f 12/16/12 9/13/9 10/14/10
f 10/14/10 11/15/11 12/16/12
f 16/20/16 13/17/13 14/18/14
f 14/18/14 15/19/15 16/20/16
f 11/15/11 17/21/17 18/22/18
f 18/22/18 12/16/12 11/15/11
f 26/30/26 19/23/19 20/24/20
f 26/30/26 20/24/20 21/25/21
f 26/30/26 21/25/21 22/26/22
f 26/30/26 22/26/22 23/27/23
f 26/30/26 23/27/23 24/28/24
f 24/28/24 25/29/25 26/30/26
f 30/34/30 27/31/27 28/32/28
f 28/32/28 29/33/29 30/34/30
f 32/38/32 28/35/28 27/36/27
f 27/36/27 31/37/31 32/38/32
f 15/19/15 18/22/18 17/21/17
f 17/21/17 16/20/16 15/19/15
f 29/33/29 14/18/14 13/17/13
f 13/17/13 30/34/30 29/33/29
f 9/13/9 32/38/32 31/37/31
f 31/37/31 10/14/10 9/13/9
f 9/13/9 33/39/33 34/40/34
f 34/40/34 32/38/32 9/13/9
f 31/37/31 24/41/24 23/27/23
f 23/27/23 10/14/10 31/37/31
f 11/15/11 22/26/22 21/42/21
f 21/42/21 17/21/17 11/15/11
f 18/22/18 35/43/35 36/44/36
f 36/44/36 12/16/12 18/22/18
f 16/20/16 20/45/20 19/46/19
f 19/46/19 13/17/13 16/20/16
f 14/18/14 37/47/37 38/48/38
f 38/48/38 15/19/15 14/18/14
f 30/34/30 26/49/26 25/50/25
f 25/50/25 27/31/27 30/34/30
f 28/32/28 39/51/39 40/52/40
f 40/52/40 29/33/29 28/32/28
f 33/39/33 9/13/9 12/16/12
f 12/16/12 36/44/36 33/39/33
f 35/43/35 18/22/18 15/19/15
f 15/19/15 38/48/38 35/43/35
f 37/47/37 14/18/14 29/33/29
f 29/33/29 40/52/40 37/47/37
f 39/53/39 28/35/28 32/38/32
f 32/38/32 34/40/34 39/53/39
f 10/14/10 23/27/23 22/26/22
f 22/26/22 11/15/11 10/14/10
f 27/36/27 25/54/25 24/41/24
f 24/41/24 31/37/31 27/36/27
f 26/49/26 30/34/30 13/17/13
f 13/17/13 19/46/19 26/49/26
f 20/45/20 16/20/16 17/21/17
f 17/21/17 21/42/21 20/45/20
f 33/39/33 36/44/36 35/55/35
f 33/39/33 35/55/35 38/56/38
f 33/39/33 38/56/38 37/57/37
f 33/39/33 37/57/37 40/58/40
f 33/39/33 40/58/40 39/59/39
f 39/59/39 34/60/34 33/39/33

# Mesh
g Cube.021
usemtl DefaultMaterial
f 44/64/4 41/61/1 42/62/2
f 42/62/2 43/63/3 44/64/4
f 48/68/8 45/65/5 46/66/6
f 46/66/6 47/67/7 48/68/8
f 41/61/1 48/68/8 47/67/7
f 47/67/7 42/62/2 41/61/1
f 41/61/1 44/69/4 45/70/5
f 45/70/5 48/68/8 41/61/1
f 47/67/7 46/71/6 43/72/3
f 43/72/3 42/62/2 47/67/7
